<svg width="24" height="24" viewBox="0 0 24 24" xmlns="http://www.w3.org/2000/svg" role="img" aria-label="Calendar">
  <!-- Moldura (contorno branco) -->
  <rect x="1.25" y="3" width="21.5" height="18" rx="2.5" fill="none" stroke="white" stroke-width="1.5"/>

  <!-- Barra superior (preenchida branca, simula o cabeçalho) -->
  <rect x="1.25" y="3" width="21.5" height="3.5" rx="1" fill="white"/>

  <!-- Ganchos do calendário -->
  <rect x="6.25" y="0.5" width="2" height="4.5" rx="0.5" fill="white"/>
  <rect x="15.75" y="0.5" width="2" height="4.5" rx="0.5" fill="white"/>

  <!-- Slots dos dias: grade 4 col x 3 linhas -->
  <!-- Linha 1 -->
  <rect x="3.5"  y="8.5" width="2.6" height="2.6" rx="0.4" fill="white"/>
  <rect x="8.1"  y="8.5" width="2.6" height="2.6" rx="0.4" fill="white"/>
  <rect x="12.7" y="8.5" width="2.6" height="2.6" rx="0.4" fill="white"/>
  <rect x="17.3" y="8.5" width="2.6" height="2.6" rx="0.4" fill="white"/>

  <!-- Linha 2 -->
  <rect x="3.5"  y="12.8" width="2.6" height="2.6" rx="0.4" fill="white"/>
  <rect x="8.1"  y="12.8" width="2.6" height="2.6" rx="0.4" fill="white"/>
  <rect x="12.7" y="12.8" width="2.6" height="2.6" rx="0.4" fill="white"/>
  <rect x="17.3" y="12.8" width="2.6" height="2.6" rx="0.4" fill="white"/>

  <!-- Linha 3 -->
  <rect x="3.5"  y="17.1" width="2.6" height="2.6" rx="0.4" fill="white"/>
  <rect x="8.1"  y="17.1" width="2.6" height="2.6" rx="0.4" fill="white"/>
  <rect x="12.7" y="17.1" width="2.6" height="2.6" rx="0.4" fill="white"/>
  <rect x="17.3" y="17.1" width="2.6" height="2.6" rx="0.4" fill="white"/>
</svg>
